<svg width="564" height="693" viewBox="0 0 564 693" fill="none" xmlns="http://www.w3.org/2000/svg">
<path d="M23.7078 227.208C21.2857 227.102 17.3893 227.313 12.9664 228.682C11.3868 229.208 2.11973 232.157 2.22504 236.264C2.22504 238.054 4.1206 239.318 6.33205 240.792C10.6496 243.741 14.8619 244.583 21.1803 245.847C26.8669 247.005 31.5005 247.848 34.5544 248.374C37.503 251.533 42.3471 255.851 49.4027 258.905C51.5088 259.853 61.0918 263.854 73.5181 262.38C76.7826 262.064 79.4153 261.432 81.2055 260.906C78.7834 266.908 75.9401 274.912 73.5181 284.6C71.6225 292.182 68.358 305.767 68.358 323.353C68.358 349.364 75.6242 369.162 79.0993 377.797C82.6798 386.432 86.8921 396.542 96.0538 407.494C102.056 414.654 115.22 430.556 137.124 435.716C139.967 436.348 146.917 437.822 160.291 436.769C170.401 435.927 193.252 432.978 224.529 416.129C240.43 407.599 262.018 395.91 281.605 372.321C297.085 353.682 320.253 316.824 308.353 302.292C306.037 299.448 302.983 298.29 300.139 297.237C289.187 293.13 275.708 296.078 251.382 310.821C238.113 318.825 236.534 321.247 198.939 348.627C190.409 354.84 178.088 363.58 160.397 366.74C149.339 368.74 144.179 367.056 141.862 366.213C129.541 361.474 124.697 348.311 121.328 339.044C114.798 321.352 116.694 305.661 117.747 298.29C119.221 286.917 122.486 278.071 127.014 266.066C132.595 251.007 134.175 251.533 137.334 240.897C140.599 230.051 144.074 217.414 139.44 204.145C137.861 199.722 135.123 192.035 127.646 189.086C122.17 186.875 116.694 188.244 114.272 189.086C112.271 181.715 110.586 173.606 109.112 164.866C106.9 151.386 106.163 138.96 106.058 128.113C103.531 126.534 99.4237 124.533 94.2636 123.585C87.524 122.321 81.9426 123.269 76.256 124.638C61.0918 128.113 51.0876 130.43 38.2401 137.275C32.2376 140.54 24.129 145.489 15.5991 152.861C16.1256 165.076 17.1786 178.029 18.653 191.614C20.0219 203.935 21.7069 215.94 23.7078 227.208Z" fill="white"/>
<path d="M120.275 208.884C115.325 210.358 109.954 207.199 108.691 202.144C107.216 196.142 112.903 190.666 118.379 189.613C129.752 187.401 137.018 199.09 137.861 208.884C138.598 218.046 137.229 228.261 135.334 237.212C133.227 247.111 128.594 256.062 124.697 265.223C117.747 281.651 114.904 300.291 115.852 318.088C116.589 333.462 121.222 349.469 132.595 360.421C143.758 371.057 160.186 376.533 175.034 370.847C176.93 370.109 176.087 367.055 174.192 367.793C155.131 375.164 134.596 363.054 125.856 345.889C115.852 326.302 117.642 300.922 122.907 280.282C125.75 269.225 131.226 259.326 135.228 248.795C138.809 239.318 140.072 229.208 140.809 219.204C141.441 210.674 141.441 201.197 135.965 194.141C131.648 188.665 124.592 185.085 117.642 186.454C110.797 187.823 104.478 194.246 105.532 201.512C106.479 208.884 114.272 213.728 121.328 211.727C123.118 211.306 122.275 208.252 120.275 208.884Z" fill="#161616"/>
<path d="M142.6 368.214C173.244 371.689 197.149 349.259 220.211 332.725C232.637 323.774 245.485 314.928 258.964 307.662C265.809 303.976 273.075 300.817 280.657 299.132C287.292 297.658 301.087 295.236 305.51 302.292C306.563 303.976 309.301 302.397 308.248 300.712C301.719 290.392 283.079 294.709 273.707 297.763C258.438 302.818 244.642 312.085 231.374 321.036C217.684 330.303 204.941 340.729 191.252 349.996C176.824 359.684 160.396 367.161 142.6 365.055C140.493 364.739 140.599 367.898 142.6 368.214Z" fill="#161616"/>
<path d="M28.0253 150.86C26.0244 181.925 31.9216 212.886 45.085 241.108C45.9275 242.898 48.6655 241.319 47.823 239.528C34.9755 211.833 29.2889 181.293 31.2898 150.86C31.2898 148.859 28.1306 148.859 28.0253 150.86Z" fill="#161616"/>
<path d="M47.0859 243.53C73.6233 240.687 99.4236 233.315 123.434 221.731C125.224 220.889 123.644 218.151 121.854 218.993C98.3705 230.367 73.0968 237.633 47.0859 240.371C45.0851 240.581 45.0851 243.741 47.0859 243.53Z" fill="#161616"/>
<path d="M119.116 212.149C120.169 214.992 121.327 217.835 122.381 220.678C123.118 222.574 126.172 221.731 125.435 219.836C124.381 216.993 123.223 214.149 122.17 211.306C121.433 209.516 118.379 210.253 119.116 212.149Z" fill="#161616"/>
<path d="M104.373 129.166C106.163 148.754 105.953 170.026 113.535 188.349C114.272 190.245 117.326 189.402 116.589 187.507C109.112 169.394 109.322 148.438 107.638 129.166C107.322 127.166 104.162 127.166 104.373 129.166Z" fill="#161616"/>
<path d="M32.5535 151.492C42.2418 144.436 53.5097 140.434 64.9881 137.17C77.7303 133.589 90.6832 129.693 104.057 130.22C106.058 130.325 106.058 127.166 104.057 127.06C90.4725 126.639 77.2038 130.535 64.1457 134.116C52.3513 137.38 40.8728 141.487 30.9739 148.754C29.289 150.017 30.8686 152.755 32.5535 151.492Z" fill="#161616"/>
<path d="M67.4102 212.043C59.5122 208.147 55.1946 200.249 54.2468 191.719C53.1937 182.136 57.406 175.502 64.9881 170.131C72.2543 164.866 80.7843 160.969 89.5248 165.392C98.16 169.71 102.056 178.871 104.373 187.717C104.9 189.718 107.954 188.876 107.427 186.875C104.794 176.66 99.8448 166.34 89.63 161.917C79.7312 157.599 70.1482 162.233 62.1449 168.235C53.9309 174.343 49.9292 182.031 51.2982 192.351C52.4565 201.723 57.406 210.464 65.9359 214.676C67.6208 215.729 69.2004 212.991 67.4102 212.043Z" fill="#161616"/>
<path d="M63.3032 212.254C68.4633 218.783 77.625 218.572 85.1019 217.309C93.7371 215.834 102.583 212.359 106.9 204.25C107.848 202.46 105.11 200.881 104.162 202.671C100.477 209.621 93.1052 212.57 85.7337 214.044C78.8887 215.413 70.2535 216.15 65.5147 210.042C64.251 208.357 62.0396 210.674 63.3032 212.254Z" fill="#161616"/>
<path d="M104.373 186.664C105.216 189.718 105.637 192.877 105.742 196.036C105.847 198.037 109.007 198.037 108.901 196.036C108.796 192.561 108.269 189.192 107.427 185.822C106.9 183.821 103.847 184.663 104.373 186.664Z" fill="#161616"/>
<path d="M13.4929 154.335C14.4407 175.502 16.8627 196.458 21.075 217.203C22.1281 222.469 23.2864 227.839 24.6554 233.105C25.4979 236.475 26.1297 240.16 28.8677 242.477C33.7119 246.795 41.1887 244.899 46.6647 243.109C48.5602 242.477 47.7178 239.423 45.8222 240.055C42.3471 241.213 38.6613 242.372 35.0809 241.74C29.4996 240.897 28.6571 235.948 27.4987 231.209C25.4979 222.995 23.813 214.676 22.3387 206.357C19.2848 189.192 17.4945 171.711 16.7574 154.335C16.6521 152.334 13.4929 152.334 13.4929 154.335Z" fill="#161616"/>
<path d="M14.9672 154.967C20.3378 154.756 25.4979 153.914 30.5527 152.229C32.4482 151.597 31.6057 148.543 29.7102 149.175C24.8661 150.754 20.0219 151.702 14.8619 151.807C12.9664 151.913 12.9663 155.072 14.9672 154.967Z" fill="#161616"/>
<path d="M16.0202 152.439C27.92 143.067 42.1365 137.38 56.4583 132.957C63.3032 130.851 70.2535 128.745 77.3091 127.06C85.7337 124.954 95.106 124.112 102.267 130.009C103.847 131.272 106.058 129.061 104.478 127.797C91.4202 117.056 73.2021 124.638 58.9857 128.85C42.8736 133.695 27.0776 139.697 13.7035 150.228C12.1239 151.491 14.4406 153.703 16.0202 152.439Z" fill="#161616"/>
<path d="M44.9797 135.695C39.7144 128.219 34.9756 120.321 32.6588 111.369C30.2368 102.102 29.9209 91.9929 28.9731 82.5153C28.7625 80.5144 25.6033 80.5144 25.8139 82.5153C26.8669 92.3089 27.0775 102.629 29.6049 112.212C32.027 121.374 36.8711 129.588 42.2418 137.275C43.4002 138.96 46.1381 137.38 44.9797 135.695Z" fill="#161616"/>
<path d="M27.0775 80.8304C27.6041 80.5145 27.2882 80.5144 27.0775 79.9879C26.8669 79.4614 26.7617 78.7242 26.6564 78.1977C26.5511 77.4606 26.6563 75.565 27.8147 75.6703C28.6572 75.6703 28.6572 77.3552 28.6572 77.9871C28.6572 78.4083 28.7625 78.9348 28.5519 79.3561C28.236 79.9879 28.1306 79.5667 28.3412 80.0932C27.6041 78.1977 24.5502 79.0401 25.2874 80.9357C26.3405 83.8843 30.2368 83.4631 31.3952 80.8304C32.4483 78.4083 31.9217 73.6695 28.9731 72.827C25.7086 71.774 23.2865 75.1438 23.3918 78.0924C23.4971 80.6198 24.9715 85.6745 28.4466 83.779C30.4474 82.6206 28.8678 79.8826 27.0775 80.8304Z" fill="#161616"/>
<path d="M70.6748 83.3577C75.6242 96.5211 77.2038 110.422 74.8871 124.322C74.5712 126.323 77.6251 127.166 77.941 125.165C80.2578 110.632 78.8888 96.2052 73.7287 82.5152C72.9916 80.725 69.9376 81.4622 70.6748 83.3577Z" fill="#161616"/>
<path d="M70.78 80.0932C68.5686 79.5667 69.2004 76.4075 71.4119 76.934C72.465 77.1446 72.9915 78.4083 73.2021 79.3561C73.2021 79.672 72.9915 82.1994 72.1491 81.4622C70.5694 80.1985 68.358 82.41 69.9376 83.6737C72.2543 85.6745 75.5188 84.3056 76.256 81.3569C76.9931 78.619 75.6242 75.3544 73.0968 74.0907C70.6747 72.9323 67.5155 74.196 66.5677 76.7234C65.5146 79.4614 67.3049 82.41 70.0429 83.0418C71.9384 83.5684 72.7808 80.5145 70.78 80.0932Z" fill="#161616"/>
<path d="M23.813 225.944C18.0211 225.312 12.2292 226.365 7.27977 229.419C4.33117 231.209 -0.512925 234.895 0.540148 239.002C1.69853 243.635 10.3337 244.478 13.9141 245.426C21.075 247.321 28.3412 248.374 35.7127 249.006C37.7136 249.217 37.7136 245.952 35.7127 245.847C26.6563 245.11 17.7052 243.53 9.07001 240.792C6.43733 239.95 2.43568 239.634 5.27898 234.895C6.12143 233.421 8.64876 232.157 10.2284 231.314C14.4407 229.103 19.0742 228.576 23.813 229.103C25.8139 229.314 25.8139 226.154 23.813 225.944Z" fill="#161616"/>
<path d="M34.5543 248.69C40.8728 253.113 47.823 259.642 55.2999 261.959C63.0926 264.276 72.6755 263.433 80.6789 262.801C82.6797 262.696 82.6797 259.537 80.6789 259.642C72.9915 260.169 63.6191 261.116 56.1423 258.905C48.9814 256.799 42.1364 250.164 36.1339 245.952C34.5543 244.794 32.9747 247.532 34.5543 248.69Z" fill="#161616"/>
<path d="M78.5728 261.748C61.4077 306.399 63.3032 362.317 90.8938 402.544C103.109 420.446 121.854 434.663 143.969 437.19C167.031 439.823 191.989 432.451 212.945 423.29C236.85 412.864 258.332 397.384 276.866 379.061C278.341 377.586 276.129 375.375 274.655 376.849C243.589 407.494 201.993 431.609 157.659 434.242C105.531 437.401 77.7303 385.379 72.0437 340.307C68.7792 313.981 72.1491 287.233 81.6267 262.485C82.3639 260.59 79.3099 259.853 78.5728 261.748Z" fill="#161616"/>
<path d="M61.513 207.936C55.1946 201.512 52.5619 192.035 54.8787 183.4C58.1432 171.289 70.8853 161.812 84.47 164.023C100.266 166.55 105.637 182.978 106.269 191.298C106.479 194.036 107.006 201.723 101.951 207.094C100.582 208.568 99.3183 209.2 97.1068 210.464C92.5786 212.991 86.8921 216.15 79.31 215.834C68.9898 215.308 62.3555 208.779 61.513 207.936Z" fill="#EC615B"/>
<path opacity="0.16" d="M92.5787 122.743C95.422 124.428 98.3706 126.113 101.214 127.903C89.8407 128.85 74.5711 131.273 57.8273 137.802C46.8753 142.014 37.8189 146.963 30.5527 151.597C29.9209 161.075 29.9209 172.132 31.3952 184.347C33.9225 206.357 39.925 224.259 45.6116 237.212C48.3496 239.739 51.7195 242.477 55.8265 244.688C72.2544 253.64 89.3141 250.586 95.7379 249.006C92.5787 257.22 88.1557 269.752 83.9435 285.337C74.6764 319.141 73.518 340.729 71.3066 340.623C69.0951 340.518 67.4102 319.246 70.4641 297.553C72.5703 282.283 76.6773 270.068 79.9418 261.643C74.887 262.275 70.6748 261.959 67.7262 261.643C57.722 260.485 50.4558 256.588 45.1904 253.745C40.9781 251.428 37.6083 249.111 35.2915 247.426C30.9739 247.111 25.182 246.479 18.337 245.426C6.2267 243.53 4.12054 242.161 3.38339 240.266C2.01439 236.896 4.96304 232.368 7.70103 230.051C11.9133 226.47 18.3371 225.944 24.2343 228.471C21.7069 217.098 19.3901 204.25 17.9158 190.139C16.3362 175.607 15.8097 162.233 15.915 150.228C25.2873 144.331 37.7136 137.591 52.9832 132.115C68.1474 126.85 81.732 124.112 92.5787 122.743Z" fill="#606060"/>
<path opacity="0.11" d="M109.112 200.67C110.902 197.616 119.643 197.932 125.224 202.144C131.858 207.094 133.754 217.414 130.911 219.731C129.226 220.994 126.066 219.941 124.276 218.783C120.59 216.361 120.485 212.043 120.485 211.622C119.853 211.622 113.008 211.201 110.06 205.935C109.533 204.988 108.059 202.355 109.112 200.67Z" fill="#606060"/>
<path opacity="0.09" d="M30.1315 152.755C30.7634 161.601 32.6589 174.975 38.9773 189.929C41.5047 195.931 44.5586 203.197 49.7186 209.516C65.1988 228.155 92.0522 229.103 101.109 229.103C86.2603 232.894 71.4119 236.58 56.5636 240.371C77.3091 241.319 102.267 245.426 109.954 261.432C117.747 277.86 100.056 291.761 95.7379 326.512C95.422 329.25 88.6824 389.591 121.222 411.706C142.81 426.344 171.875 417.182 192.199 410.758C248.749 392.856 283.185 350.206 299.929 325.038C298.454 334.094 295.085 348.311 286.239 363.265C273.181 385.274 255.7 396.436 238.745 407.283C214.209 422.974 193.252 428.976 188.303 430.345C171.454 434.873 157.975 438.559 142.284 435.716C107.954 429.503 88.6823 397.173 84.47 390.223C60.3547 349.89 69.8323 303.555 74.6765 280.072C76.3614 272.068 78.1517 265.539 79.5206 261.011C75.203 261.854 67.7262 262.696 58.9857 260.485C46.5595 257.431 38.6614 250.164 35.5022 246.795C14.4407 246.268 3.48877 243.846 2.75162 239.423C2.22509 236.369 6.43735 232.473 15.4938 227.629C18.1265 227.313 20.7592 226.997 23.2865 226.681C20.5486 202.566 17.7052 178.345 14.9672 154.23C20.022 153.703 25.0768 153.282 30.1315 152.755Z" fill="#606060"/>
<path d="M250.013 514.802C248.012 531.967 246.222 545.867 244.958 554.292C227.858 592.329 429.407 613.396 501.487 579.882C510.438 535.758 517.599 483.104 518.968 423.5C520.021 378.113 517.388 336.938 513.176 300.712C503.382 294.288 488.218 285.653 468.21 279.756C447.885 273.753 431.879 273.227 411.87 272.279C396.917 271.542 377.329 270.699 352.793 275.017C337.945 277.65 316.146 283.126 291.609 295.447C279.288 319.773 272.443 340.413 268.652 353.997C255.489 401.491 259.596 430.45 250.013 514.802Z" fill="#EC615B"/>
<path opacity="0.16" d="M436.196 273.859C438.408 279.229 441.567 287.97 443.989 299.027C452.94 339.992 440.514 361.685 435.038 409.81C429.035 462.148 441.462 465.202 432.089 501.428C424.086 532.493 380.596 581.518 369.012 595.84C453.283 595.84 463.817 593.031 501.592 581.04C502.856 574.195 504.541 564.823 506.331 553.555C508.753 538.917 513.071 512.169 515.914 484.684C519.494 449.827 519.494 422.868 519.494 402.123C519.494 374.532 518.231 340.307 514.124 300.923C509.806 298.185 503.803 294.709 496.432 291.024C488.534 287.127 477.055 281.546 461.365 277.755C454.941 276.175 446.516 274.49 436.196 273.859Z" fill="#606060"/>
<path opacity="0.13" d="M513.07 301.976C509.701 316.824 504.751 339.781 499.907 368.214C488.534 434.873 490.745 455.408 479.793 486.895C472.106 509.01 439.158 564.108 404.827 596.542C453.283 596.542 473.649 586.008 500.539 579.881C509.174 540.602 513.492 506.588 515.703 480.261C519.915 431.188 518.441 392.54 517.388 364.212C516.335 339.044 514.65 317.772 513.07 301.976Z" fill="#606060"/>
<path d="M488.534 297.131C486.323 298.395 483.585 301.554 478.214 307.767C474.739 311.769 473.054 313.77 471.685 315.771C468.315 320.826 466.841 325.88 465.156 337.675C463.471 349.258 462.628 355.156 462.418 362.738C461.997 380.956 464.735 397.279 468.42 415.602C475.476 450.353 478.635 454.987 482.637 478.155C486.007 497.742 487.165 513.854 487.586 524.069C483.9 528.386 478.635 534.915 472.843 543.34C461.891 559.347 456.31 571.773 452.73 579.144C446.411 591.886 435.564 609.578 416.188 629.902C413.45 630.324 409.132 630.639 404.183 629.376C395.864 627.164 394.705 622.531 386.175 620.319C383.121 619.477 384.49 620.425 370.906 619.793C361.323 619.372 358.48 618.74 355.636 620.846C353.004 622.741 350.897 626.533 351.845 629.902C353.004 633.904 358.269 636.853 364.377 635.8C355.952 637.906 350.055 641.276 346.369 643.803C341.841 646.962 333.101 652.965 334.364 658.757C335.101 662.126 339.208 664.759 339.84 665.18C341.946 666.549 344.052 667.076 345.316 667.286C345.421 667.918 346.369 671.815 350.266 674.237C354.478 676.869 358.901 675.5 359.533 675.29C360.48 677.185 362.271 680.134 365.535 682.24C371.432 685.926 379.752 685.505 386.807 681.187C386.702 683.293 387.018 686.242 389.019 688.137C391.967 690.981 397.233 690.033 404.288 688.137C423.138 683.188 432.616 680.66 438.092 674.237C440.409 671.499 445.042 665.18 446.306 654.439C464.103 641.381 477.793 629.376 487.165 620.741C514.334 595.783 536.659 574.721 550.876 541.655C558.142 524.7 560.564 511.116 561.196 506.377C563.197 493.319 562.881 482.367 561.196 464.149C559.406 444.878 556.457 423.184 549.718 388.854C548.875 384.747 543.399 357.157 531.183 324.722C527.919 315.981 523.075 304.292 511.596 298.5C510.017 298.079 497.485 291.971 488.534 297.131Z" fill="white"/>
<path d="M487.586 295.868C464.313 312.506 459.68 345.573 460.628 372.11C461.786 405.282 472.106 436.98 479.267 469.098C483.479 487.948 486.533 507.009 486.112 526.385C486.112 528.386 489.271 528.386 489.271 526.385C490.219 486.474 476.318 448.774 468.526 410.126C464.524 390.013 462.102 369.267 464.735 348.732C467.051 330.198 473.37 309.979 489.166 298.606C490.746 297.447 489.166 294.709 487.586 295.868Z" fill="#161616"/>
<path d="M497.485 519.435C477.371 527.86 467.683 549.026 457.363 566.823C444.41 589.254 430.931 611.368 412.818 630.113C411.449 631.587 413.661 633.799 415.03 632.325C431.563 615.265 444.41 595.256 456.31 574.721C467.157 556.187 477.056 531.335 498.222 522.384C500.223 521.647 499.381 518.593 497.485 519.435Z" fill="#161616"/>
<path d="M487.165 300.185C500.434 291.34 515.072 301.976 522.127 313.454C529.183 324.827 533.922 337.991 538.134 350.628C546.98 377.27 551.718 405.071 555.088 432.873C558.353 460.042 563.092 489.212 558.037 516.381C552.982 543.34 535.291 565.981 517.915 586.41C498.117 609.578 475.581 630.113 450.834 647.805C449.149 648.963 450.729 651.701 452.414 650.543C475.897 633.799 497.485 614.422 516.546 592.834C534.764 572.089 554.141 548.605 560.354 521.015C566.883 491.845 561.617 460.252 558.142 430.977C554.562 401.386 549.191 371.689 539.187 343.467C534.343 329.882 528.972 314.297 518.863 303.66C510.438 294.815 496.643 290.181 485.691 297.447C483.901 298.606 485.48 301.344 487.165 300.185Z" fill="#161616"/>
<path d="M363.324 633.904C360.691 633.378 355.636 632.851 354.162 630.429C354.162 628.007 354.267 625.69 354.267 623.268C355.11 622.741 355.952 622.426 356.9 622.215C358.269 621.794 359.743 621.688 361.218 621.583C367.747 620.846 376.066 619.266 382.384 621.372C387.755 623.163 392.494 626.743 397.759 628.744C403.235 630.745 408.922 632.009 414.714 632.64C416.714 632.851 416.714 629.692 414.714 629.481C409.448 628.849 404.393 627.796 399.444 626.006C394.389 624.216 390.072 621.372 385.228 619.161C377.645 615.686 367.747 617.581 359.848 618.529C355.32 619.056 349.528 620.741 349.107 626.217C348.581 633.483 356.689 636.01 362.271 637.063C364.482 637.274 365.325 634.22 363.324 633.904Z" fill="#161616"/>
<path d="M377.961 635.168C370.8 632.535 363.429 633.799 356.479 636.642C350.371 639.064 343.315 641.802 338.892 646.752C336.154 649.7 330.994 657.388 332.258 661.811C333.627 666.444 340.788 668.971 345.105 668.129C347.106 667.708 346.264 664.654 344.263 665.075C337.945 666.339 334.68 660.968 336.891 656.124C337.523 654.65 338.26 653.281 338.998 651.912C341.63 647.699 345.421 645.383 349.739 643.276C358.269 639.064 367.536 634.852 377.119 638.327C379.014 638.959 379.857 635.905 377.961 635.168Z" fill="#161616"/>
<path d="M382.595 645.277C370.59 647.068 351.319 649.174 344.895 661.389C339.524 671.604 351.74 680.871 361.007 676.027C362.797 675.079 361.218 672.341 359.427 673.289C353.53 676.343 345.211 671.604 347.001 664.549C348.159 659.704 353.53 656.756 357.742 654.755C365.746 650.964 374.802 649.595 383.437 648.226C385.438 648.015 384.596 644.961 382.595 645.277Z" fill="#161616"/>
<path d="M453.361 646.12C446.938 648.858 444.726 654.86 442.831 661.179C441.146 666.971 439.04 671.709 433.669 674.974C429.246 677.607 424.086 678.976 419.242 680.661C414.082 682.451 408.922 684.346 403.762 686.136C401.445 686.979 399.023 688.032 396.601 688.664C395.337 689.085 394.073 689.296 392.81 689.401C388.808 687.821 387.65 685.399 389.545 682.345C391.651 678.133 397.127 674.553 400.813 671.92C404.92 669.077 409.238 666.865 413.871 665.18C415.767 664.548 414.924 661.495 413.029 662.126C407.553 664.022 402.498 666.76 397.864 670.13C393.968 672.973 389.229 676.343 386.807 680.661C385.228 683.504 384.912 687.295 387.018 689.928C389.65 693.192 393.863 692.666 397.443 691.612C404.393 689.612 411.238 686.663 418.189 684.241C423.875 682.24 429.983 680.555 435.248 677.501C439.25 675.185 442.199 672.025 443.989 667.708C446.622 661.389 446.832 652.228 454.204 649.068C456.099 648.436 455.257 645.383 453.361 646.12Z" fill="#161616"/>
<path d="M394.811 658.23C386.702 659.178 378.172 660.126 370.485 662.864C365.64 664.549 357.637 668.971 357.111 674.869C356.479 681.082 365.219 684.03 370.063 684.768C377.645 685.926 385.544 683.504 391.757 679.186C393.442 678.028 391.862 675.29 390.177 676.448C385.544 679.607 380.383 681.608 374.697 681.819C369.01 682.03 355.32 677.923 363.429 670.656C371.327 663.495 384.701 662.548 394.811 661.284C396.811 661.179 396.811 658.019 394.811 658.23Z" fill="#161616"/>
<path opacity="0.09" d="M497.275 297.237C489.482 302.818 505.383 333.884 516.335 364.423C527.814 396.12 543.926 440.771 537.502 488.159C530.762 537.864 501.487 573.879 483.795 595.572C465.682 617.792 447.359 633.378 433.564 643.592C371.854 658.651 358.901 668.024 359.322 674.026C359.533 676.659 362.481 680.134 365.64 681.819C373.854 686.242 383.964 680.555 385.438 679.713C385.438 682.24 385.859 688.348 389.651 690.349C392.389 691.718 395.442 690.349 398.812 688.98C416.293 681.819 418.294 685.399 429.878 678.344C434.195 675.711 437.355 673.71 440.514 669.814C445.99 663.074 447.254 655.492 447.57 651.385C457.784 644.014 470.211 634.431 483.585 622.426C503.382 604.734 524.023 586.095 541.504 556.714C549.191 543.866 555.825 532.493 559.195 515.749C562.144 500.69 560.775 490.054 558.458 469.098C551.613 404.756 554.035 409.81 552.14 399.069C548.243 377.692 546.769 380.535 534.448 336.201C534.343 335.885 531.499 325.459 524.549 313.559C520.337 306.399 517.599 303.555 514.65 301.554C510.017 298.079 501.066 294.604 497.275 297.237Z" fill="#606060"/>
<path opacity="0.1" d="M558.142 469.414C555.825 469.204 554.14 481.735 547.822 501.112C536.87 534.599 523.075 557.978 508.542 577.67C494.01 597.257 474.423 621.899 449.254 648.752C481.373 624.742 504.751 601.68 520.337 584.62C545.61 557.03 551.929 543.761 555.509 533.546C566.251 502.375 561.828 469.73 558.142 469.414Z" fill="#606060"/>
<path opacity="0.11" d="M390.809 687.084C390.282 685.294 397.864 681.714 413.029 674.342C425.876 668.129 436.302 662.864 443.462 659.283C442.62 664.654 440.514 671.499 434.933 674.974C433.353 675.922 432.3 676.238 429.983 676.975C416.188 681.292 414.187 685.083 404.393 687.084C399.128 688.243 391.23 688.769 390.809 687.084Z" fill="#606060"/>
<path opacity="0.1" d="M360.902 671.709C366.483 672.131 374.697 672.236 384.49 670.762C401.129 668.234 413.66 662.126 413.976 662.864C414.187 663.39 408.922 665.496 400.497 670.446C390.598 676.238 390.598 677.712 385.122 679.923C382.49 680.976 369.221 686.452 363.534 680.555C361.112 678.028 360.796 674.131 360.902 671.709Z" fill="#606060"/>
<path d="M224.95 117.267C223.897 122.111 223.686 127.06 223.897 136.748C224.107 145.594 224.739 164.971 232.953 188.665C237.376 201.512 243.168 218.256 258.016 235.527C258.016 235.527 279.078 259.853 310.249 269.646C318.884 272.384 325.729 273.121 332.89 271.647C341.104 270.068 347.001 266.066 350.265 263.433C352.056 266.276 354.583 270.91 355.847 277.123C357.848 286.706 355.004 290.918 358.269 298.29C359.006 299.975 361.849 305.977 368.378 309.242C375.013 312.506 381.542 310.927 387.228 309.558C391.441 308.505 400.813 305.661 408.184 297.237C410.712 294.288 414.713 289.76 414.819 283.547C414.819 279.44 413.134 276.386 412.397 275.017C410.607 271.752 408.184 262.801 403.34 244.899C400.076 232.894 400.497 223.311 401.234 204.25C401.655 194.562 402.708 181.715 405.762 166.656C407.869 167.814 411.87 169.499 416.609 168.657C424.928 167.182 429.035 158.863 430.931 154.967C431.457 153.914 440.303 135.064 429.562 121.795C428.509 120.531 419.979 110.316 410.396 113.265C403.446 115.371 400.708 122.953 400.286 124.217C398.075 121.584 395.864 118.53 393.652 114.95C388.281 105.999 385.754 97.4689 384.596 91.0451C363.324 91.9929 346.58 89.5708 335.101 87.2541C311.407 82.4099 304.141 76.3021 283.29 76.0915C270.548 75.8809 255.384 75.7756 242.641 85.9904C229.373 96.8371 225.898 112.844 224.95 117.267Z" fill="white"/>
<path d="M222.633 126.955C220.737 168.025 231.795 210.569 261.176 240.581C274.023 253.745 289.819 264.17 307.405 269.857C316.462 272.806 326.571 275.228 335.944 272.49C345.632 269.541 354.688 263.012 363.008 257.22C381.858 244.057 398.601 226.47 403.235 203.303C403.656 201.302 400.602 200.459 400.181 202.46C396.074 222.89 382.174 239.002 365.851 251.323C358.163 257.115 349.844 262.696 341.209 267.014C331.1 272.068 321.095 270.805 310.565 267.645C275.181 257.009 248.012 227.629 235.375 193.509C227.582 172.342 224.845 149.596 225.898 127.06C225.898 124.954 222.738 124.954 222.633 126.955Z" fill="#161616"/>
<path d="M350.266 265.539C353.635 274.701 355.847 284.073 357.005 293.867C357.216 295.868 360.375 295.868 360.164 293.867C359.006 283.863 356.795 274.174 353.319 264.802C352.582 262.801 349.528 263.644 350.266 265.539Z" fill="#161616"/>
<path d="M399.971 206.146C398.917 218.678 399.549 231.315 401.866 243.741C403.13 250.165 404.815 256.483 406.921 262.696C409.238 269.436 412.713 276.281 412.291 283.547C411.554 295.552 400.602 304.292 389.966 307.662C378.488 311.348 358.164 309.347 359.638 292.814C359.848 290.813 356.689 290.813 356.479 292.814C355.426 305.03 367.009 312.401 377.961 312.717C389.966 312.928 402.814 307.136 410.185 297.553C419.663 285.021 413.345 272.384 409.132 259.116C403.551 242.056 401.655 224.154 403.13 206.251C403.235 204.145 400.076 204.145 399.971 206.146Z" fill="#161616"/>
<path d="M353.846 265.118C368.694 257.325 381.12 245.847 389.861 231.63C390.914 229.945 388.176 228.261 387.123 230.051C378.593 243.951 366.588 254.903 352.161 262.485C350.476 263.433 352.056 266.066 353.846 265.118Z" fill="#161616"/>
<path d="M354.056 267.014C363.218 262.485 370.8 255.851 377.961 248.585C384.596 241.845 390.703 234.684 394.389 225.839C395.126 223.943 392.072 223.101 391.335 224.996C387.65 233.842 381.12 240.897 374.486 247.637C367.957 254.271 360.901 260.169 352.477 264.276C350.581 265.118 352.161 267.856 354.056 267.014Z" fill="#161616"/>
<path d="M355.004 268.909C373.222 258.8 387.755 243.425 396.39 224.469C397.233 222.679 394.495 220.994 393.652 222.89C385.228 241.319 371.116 256.378 353.425 266.171C351.634 267.119 353.319 269.857 355.004 268.909Z" fill="#161616"/>
<path d="M284.027 140.329C284.238 159.179 285.712 177.924 288.24 196.563C288.345 197.511 289.819 198.037 290.556 197.511C296.875 192.877 302.456 187.612 307.616 181.715C308.985 180.135 306.668 177.924 305.405 179.503C300.455 185.19 295.085 190.35 288.977 194.878C289.714 195.194 290.556 195.51 291.294 195.826C288.766 177.502 287.397 158.968 287.187 140.434C287.187 138.223 284.027 138.223 284.027 140.329Z" fill="#161616"/>
<path d="M259.807 164.76C257.279 163.497 255.278 161.601 254.12 158.968C253.172 156.968 251.382 149.385 256.016 150.649C258.648 151.386 260.754 155.493 261.492 157.81C261.913 159.074 262.334 160.653 262.018 162.022C262.123 163.497 261.386 164.55 259.807 165.076C259.069 164.55 258.543 163.918 258.016 163.181C256.753 161.601 254.541 163.813 255.805 165.392C259.069 169.604 264.124 168.973 265.072 163.391C266.02 157.705 263.071 151.702 258.543 148.438C253.804 145.068 250.118 148.016 249.908 153.387C249.697 159.284 253.172 164.655 258.332 167.288C260.017 168.446 261.597 165.708 259.807 164.76Z" fill="#161616"/>
<path d="M252.224 152.018C253.383 157.494 256.016 162.338 259.912 166.34C261.07 167.604 262.86 166.235 262.545 164.76C261.597 159.706 256.647 155.809 257.069 150.544C256.121 150.965 255.278 151.281 254.331 151.702C257.385 155.283 259.175 159.284 260.017 163.918C260.544 163.286 261.07 162.549 261.491 161.917C258.227 161.917 256.331 158.863 254.857 156.441C253.804 154.756 251.066 156.336 252.119 158.021C254.225 161.496 256.963 165.076 261.491 165.076C262.65 165.076 263.176 164.023 262.966 163.075C262.123 157.915 259.807 153.387 256.542 149.491C255.594 148.332 253.909 149.385 253.804 150.649C253.383 156.441 258.438 160.232 259.385 165.708C260.228 165.182 261.176 164.655 262.018 164.128C258.438 160.443 256.226 156.125 255.068 151.176C254.857 149.175 251.803 150.017 252.224 152.018Z" fill="#161616"/>
<path d="M337.102 155.599C334.575 154.335 332.574 152.439 331.415 149.807C330.468 147.806 328.678 140.224 333.311 141.487C335.944 142.225 338.05 146.332 338.787 148.648C339.208 149.912 339.629 151.492 339.314 152.861C339.419 154.335 338.682 155.388 337.102 155.914C336.365 155.388 335.838 154.756 335.312 154.019C334.048 152.439 331.837 154.651 333.1 156.23C336.365 160.443 341.42 159.811 342.367 154.23C343.315 148.543 340.367 142.54 335.838 139.276C331.1 135.906 327.414 138.855 327.203 144.225C326.993 150.123 330.468 155.493 335.628 158.126C337.313 159.284 338.892 156.546 337.102 155.599Z" fill="#161616"/>
<path d="M329.415 142.751C330.573 148.227 333.206 153.071 337.102 157.073C338.261 158.337 340.051 156.968 339.735 155.493C338.787 150.439 333.838 146.542 334.259 141.277C333.311 141.698 332.469 142.014 331.521 142.435C334.575 146.016 336.365 150.017 337.207 154.651C337.734 154.019 338.261 153.282 338.682 152.65C335.417 152.65 333.522 149.596 332.047 147.174C330.994 145.489 328.256 147.069 329.309 148.754C331.416 152.229 334.154 155.809 338.682 155.809C339.84 155.809 340.367 154.756 340.156 153.808C339.314 148.648 336.997 144.12 333.732 140.224C332.785 139.065 331.1 140.118 330.994 141.382C330.573 147.174 335.628 150.965 336.576 156.441C337.418 155.914 338.366 155.388 339.208 154.861C335.628 151.176 333.416 146.858 332.258 141.909C332.047 140.013 328.994 140.856 329.415 142.751Z" fill="#161616"/>
<path d="M238.324 132.641C240.957 122.532 253.804 120.215 259.912 128.745C261.07 130.43 263.808 128.85 262.65 127.166C255.068 116.529 238.745 118.952 235.375 131.799C234.743 133.8 237.797 134.537 238.324 132.641Z" fill="#161616"/>
<path d="M316.567 118.425C322.991 104.419 339.945 111.264 347.106 120.531C348.37 122.111 351.108 120.531 349.844 118.952C345.316 112.949 338.998 107.894 331.205 107.262C324.044 106.631 316.883 110.211 313.829 116.845C312.987 118.636 315.725 120.215 316.567 118.425Z" fill="#161616"/>
<path d="M279.394 223.416C272.759 211.201 288.345 212.359 296.032 211.622C304.141 210.885 312.039 208.357 319.095 204.25C326.677 199.933 331.521 193.193 338.155 187.928C340.999 185.611 345.211 182.978 349.107 185.085C352.372 186.875 353.635 191.508 353.951 194.773C354.478 199.722 353.214 204.777 351.424 209.411C346.369 222.995 336.892 234.263 322.886 238.897C306.984 244.057 288.45 237.738 279.394 223.416C278.341 221.732 275.603 223.311 276.656 224.996C284.133 236.896 298.244 244.373 312.25 243.846C326.571 243.425 340.261 235.106 348.159 223.416C354.794 213.518 363.64 192.351 352.056 183.084C345.632 177.924 337.839 183.716 333.101 188.349C325.518 195.826 318.358 202.355 308.037 205.83C302.456 207.726 296.769 208.463 290.872 208.673C286.976 208.779 282.974 208.779 279.394 210.674C273.181 214.044 273.602 219.52 276.656 224.996C277.604 226.786 280.342 225.207 279.394 223.416Z" fill="#161616"/>
<path d="M277.604 223.627C306.668 225.523 334.469 211.306 349.318 186.138C350.371 184.347 347.633 182.768 346.58 184.558C332.258 208.884 305.615 222.363 277.604 220.468C275.603 220.363 275.603 223.522 277.604 223.627Z" fill="#161616"/>
<path d="M398.18 213.307C390.914 236.264 374.907 255.43 353.741 267.014C351.95 267.961 353.53 270.699 355.32 269.752C377.119 257.747 393.652 237.949 401.129 214.149C401.761 212.254 398.812 211.411 398.18 213.307Z" fill="#161616"/>
<path d="M401.34 126.639C402.498 118.215 411.239 114.213 419.031 116.845C426.824 119.583 431.142 127.166 432.195 134.958C433.353 142.856 431.668 151.281 427.666 158.231C423.56 165.287 414.292 171.816 406.71 165.076C405.236 163.707 402.919 165.919 404.499 167.288C411.765 173.817 421.875 170.763 427.666 163.813C434.406 155.704 437.039 143.804 435.249 133.484C433.564 123.796 427.14 114.739 416.925 112.949C408.395 111.475 399.549 116.845 398.286 125.691C398.075 127.797 401.129 128.64 401.34 126.639Z" fill="#161616"/>
<path d="M377.961 115.476C378.488 118.32 378.909 124.112 383.121 126.639C387.544 129.272 393.863 126.955 398.602 124.638C398.812 124.112 402.498 114.739 411.765 113.16C419.242 111.896 424.823 116.53 426.613 117.899C433.037 123.164 434.301 130.535 435.038 134.748C436.512 142.962 434.406 149.385 433.353 153.071C432.405 156.23 431.141 160.021 427.772 163.918C426.403 165.497 424.086 168.13 420.4 169.71C413.976 172.342 407.553 169.71 405.657 168.867C403.762 170.447 401.234 172.764 399.128 176.133C399.128 176.133 398.917 176.449 398.707 176.765C395.442 182.241 398.286 194.352 398.707 201.091C398.917 205.093 398.496 210.99 395.021 218.362C398.917 220.152 411.66 225.312 427.034 221.31C431.457 220.152 442.831 217.098 451.045 206.146C460.206 193.93 458.837 180.556 458.416 177.397C463.681 172.658 466.314 167.919 467.578 164.971C468.42 163.075 474.107 149.701 468.42 143.804C466.103 141.487 464.103 142.435 462.207 140.434C459.68 137.907 458.943 131.799 466.63 116.319C468.315 116.319 469.263 115.792 469.894 115.371C472.843 112.949 471.685 105.683 466.841 97.3636C473.37 93.7831 479.899 90.2027 486.428 86.7275C481.373 86.3063 474.107 85.0426 467.472 80.4091C457.679 73.6694 456.415 64.7183 449.886 55.6619C444.831 48.6063 435.775 40.0764 417.767 34.3898C421.874 31.5465 427.666 27.1236 433.669 20.9105C438.092 16.277 447.78 5.11442 445.779 2.69235C444.41 1.11274 438.724 4.48258 431.668 7.11527C418.61 11.8541 407.658 11.1169 390.703 9.85323C367.852 8.06301 365.43 4.06135 346.369 1.74459C333.837 0.164979 310.143 -2.46772 283.817 6.79932C259.069 15.5398 244.116 30.5988 237.587 37.2331C231.584 43.3409 216.631 59.9795 208.627 85.2532C204.731 97.4689 201.045 110.106 207.574 121.479C211.681 128.535 218.105 132.326 222.422 134.326C222.001 127.376 222.106 113.897 230.32 101.155C242.536 82.3046 264.335 77.9871 280.341 74.8278C293.084 72.3005 322.148 66.6139 347.949 82.6206C357.637 88.6231 375.223 99.4697 377.961 115.476Z" fill="#5222D0"/>
<path d="M277.814 223.1C279.183 225.733 281.921 229.84 286.555 233.631C287.608 234.474 292.557 238.37 300.139 240.476C311.934 243.635 322.254 240.371 326.255 238.791C338.471 233.947 344.579 225.101 347.106 221.205C349.844 217.098 355.004 209.305 354.688 198.459C354.478 191.93 352.372 186.875 350.897 183.926C349.844 184.979 348.37 186.559 346.58 188.454C340.472 194.983 336.576 199.933 335.312 201.513C327.624 210.674 316.041 215.834 312.355 217.414C298.454 223.522 285.502 223.732 277.814 223.1Z" fill="black"/>
<path d="M236.112 42.0774C230.952 47.2374 227.688 52.6081 225.792 55.8726C219.474 66.5087 217.262 75.7757 215.683 82.4101C213.787 90.7293 211.786 103.261 213.05 118.741C213.366 122.427 215.577 125.375 218.631 126.323C220.738 126.955 222.528 126.429 223.37 126.113C224.002 122.111 225.582 116.108 229.478 109.79C236.323 98.5221 246.222 93.2567 252.014 90.3081C263.808 84.3056 274.234 83.3578 281.184 82.726C297.085 81.4623 308.985 84.8321 311.618 85.5693C322.886 88.8338 331.1 94.0992 336.576 97.5743C346.79 103.998 348.265 107.263 357.742 111.37C368.273 116.003 374.697 115.687 376.803 115.477C380.067 115.266 386.07 114.739 391.651 110.316C396.706 106.315 398.601 101.155 399.339 98.838C409.238 103.156 416.504 107.684 421.348 111.054C432.826 118.952 439.25 126.218 454.73 134.958C457.363 136.433 459.68 137.591 461.049 138.328C462.734 131.378 464.419 124.428 466.103 117.583C463.892 116.003 460.628 113.686 456.521 110.843C441.672 100.523 431.563 93.5726 418.399 86.7276C414.608 84.7268 409.132 82.0941 402.182 79.1455C403.656 73.4589 405.552 63.0335 401.866 51.3444C400.497 46.9215 398.286 40.1818 392.072 34.7059C388.176 31.336 384.28 29.7564 381.963 29.0193C355.531 19.5416 327.414 19.1204 327.414 19.1204C312.039 18.9098 291.399 18.8045 266.967 25.86C251.909 30.1776 243.063 35.1271 236.112 42.0774Z" fill="white"/>
<path d="M224.845 125.902C232.216 85.6745 287.818 75.2491 319.937 89.7815C328.783 93.7832 337.102 98.8379 345.316 103.893C352.477 108.316 359.849 112.844 368.062 114.845C380.173 117.793 395.232 114.002 399.549 101.155C400.181 99.2591 397.127 98.4167 396.495 100.312C393.547 109.158 383.859 113.16 375.118 112.844C365.324 112.423 356.584 107.052 348.475 102.208C333.206 92.9407 317.41 82.6206 299.086 80.8304C268.336 77.8818 228.214 90.8345 221.896 125.165C221.369 126.955 224.423 127.903 224.845 125.902Z" fill="#161616"/>
<path d="M221.685 123.164C220.106 122.848 218.526 122.532 216.841 122.216C216.525 121.374 216.104 120.531 215.788 119.689C215.367 118.636 215.156 117.477 214.946 116.319C214.524 113.897 214.419 111.369 214.314 108.842C214.209 103.998 214.419 99.0485 214.84 94.2044C215.578 83.7789 217.473 73.3535 222.001 63.8759C230.321 46.2896 247.17 34.4952 265.177 28.1767C285.08 21.2264 306.774 19.7521 327.73 20.2787C347.843 20.8052 370.485 22.5954 387.966 33.4421C399.549 40.603 400.918 54.2929 401.234 66.9298C401.55 79.1454 399.655 91.1505 395.758 102.629C395.126 104.524 398.18 105.367 398.812 103.471C402.814 91.677 404.815 79.356 404.394 66.9298C404.078 56.8203 403.446 43.5516 396.074 35.8641C388.597 27.9661 376.487 24.0697 366.167 21.6477C353.951 18.8044 341.209 17.646 328.678 17.2247C284.343 15.7504 226.319 25.9653 214.314 76.5128C211.365 88.6231 209.996 102.629 211.576 115.055C212.102 118.952 213.155 124.112 216.525 126.639C219.263 128.64 223.054 128.008 224.423 124.849C225.266 122.953 222.528 121.374 221.685 123.164Z" fill="#161616"/>
<path d="M217.368 120.531C224.634 93.6779 248.223 73.3536 275.287 68.5095C290.135 65.8768 305.615 67.667 319.621 73.143C334.154 78.7243 344.684 88.4126 356.057 98.7327C366.272 108.105 380.067 116.214 393.968 109.79C395.758 108.947 394.179 106.209 392.388 107.052C374.907 115.161 360.27 97.9955 348.897 87.5701C338.576 78.1977 326.15 71.2475 312.671 67.4564C286.344 60.0849 258.016 65.5609 237.271 83.5684C226.319 93.1514 218.21 105.683 214.419 119.689C213.787 121.69 216.841 122.532 217.368 120.531Z" fill="#161616"/>
<path d="M398.496 98.6273C419.663 111.475 440.303 125.165 460.522 139.381C462.207 140.54 463.787 137.802 462.102 136.643C441.883 122.321 421.243 108.737 400.076 95.8893C398.391 94.8362 396.811 97.5742 398.496 98.6273Z" fill="#161616"/>
<path d="M402.393 79.0402C423.875 91.0452 444.726 104.209 464.735 118.53C466.42 119.689 467.999 116.951 466.314 115.792C446.201 101.471 425.455 88.3072 403.972 76.3022C402.182 75.2491 400.603 77.9871 402.393 79.0402Z" fill="#161616"/>
<path d="M464.103 116.53C461.891 123.269 460.417 130.009 459.574 137.064C459.364 139.065 462.523 139.065 462.734 137.064C463.471 130.325 464.945 123.796 467.156 117.372C467.788 115.476 464.734 114.634 464.103 116.53Z" fill="#161616"/>
<path d="M272.97 69.0359C290.03 52.7133 307.195 36.6013 324.57 20.4893C326.045 19.1203 323.833 16.9088 322.359 18.2778C305.089 34.2845 287.818 50.5018 270.758 66.8245C269.284 68.1935 271.496 70.4049 272.97 69.0359Z" fill="#161616"/>
<path d="M315.725 70.4049C331.1 55.1354 346.474 39.8659 361.849 24.491C363.324 23.0167 361.007 20.8052 359.638 22.2795C344.263 37.5491 328.888 52.8186 313.513 68.1935C312.039 69.6678 314.25 71.8792 315.725 70.4049Z" fill="#161616"/>
<path opacity="0.15" d="M247.17 92.0982C246.643 87.8859 246.117 83.779 245.59 79.5667C250.54 76.1968 258.754 71.3527 269.6 68.6147C292.873 62.6122 312.46 69.9837 321.411 73.3536C328.151 75.8809 336.154 78.8295 344.474 85.8851C350.897 91.3611 350.792 93.6778 358.585 99.9963C365.746 105.893 372.696 111.369 381.647 110.948C387.018 110.738 391.23 108.421 393.652 106.736C395.969 103.471 398.18 100.102 400.497 96.8371C402.919 97.153 418.083 99.4697 425.034 112.001C426.087 113.792 425.771 114.529 428.193 121.374C432.511 133.695 433.669 134.011 434.511 138.118C434.722 139.065 436.933 152.439 427.666 161.18C420.505 168.025 410.922 167.604 408.816 167.498C405.762 175.923 405.236 183.189 405.131 187.928C405.131 195.194 405.025 204.04 410.922 211.938C413.029 214.781 417.767 221.205 426.087 221.837C436.091 222.574 442.725 214.255 443.357 213.518C429.457 216.15 415.451 218.783 401.55 221.31C401.445 232.473 403.13 241.108 404.709 246.9C408.5 261.222 413.976 267.435 413.555 279.335C413.345 286.706 410.817 292.709 408.816 296.605C402.393 278.597 395.864 260.695 389.44 242.688C382.49 248.058 375.539 253.534 368.484 258.905C371.222 253.008 374.065 247.005 376.803 241.108C380.383 225.523 381.121 212.043 381.015 201.934C380.805 187.085 376.803 172.342 369.01 142.856C364.271 125.165 361.007 115.687 352.266 107.789C349.212 105.051 345.737 103.05 338.682 98.9432C323.202 89.9921 315.514 85.4639 306.247 83.2524C286.976 78.7242 269.916 83.8843 261.807 86.4116C255.594 88.2019 250.645 90.308 247.17 92.0982Z" fill="#606060"/>
<path opacity="0.13" d="M283.817 139.592C281.5 149.701 279.499 160.864 278.025 173.079C277.288 179.819 276.761 186.243 276.445 192.456C280.973 193.509 285.502 194.562 290.03 195.615C287.924 176.976 285.923 158.336 283.817 139.592Z" fill="#606060"/>
<path opacity="0.09" d="M395.864 154.124C394.495 161.601 392.704 169.394 390.388 177.502C379.646 214.676 361.744 243.425 345.421 264.17C347.528 263.223 382.068 246.795 393.126 221.942C396.074 215.413 398.496 209.937 398.602 202.25C398.812 192.351 395.126 188.56 397.654 181.188C400.181 174.133 405.131 173.185 405.447 167.919C405.763 162.338 400.497 157.494 395.864 154.124Z" fill="#606060"/>
<path opacity="0.1" d="M255.068 81.1463C254.436 85.6745 259.596 89.7815 262.229 91.8876C276.972 103.787 290.346 93.2566 316.357 98.522C338.366 103.05 342.578 113.476 365.324 113.792C373.328 113.897 379.857 112.738 384.174 111.791C381.121 111.159 376.487 109.79 371.432 107.157C362.692 102.629 357.532 96.9424 355.636 94.9415C345.421 84.0949 327.098 73.0376 313.829 68.9306C288.029 60.822 256.542 70.9315 255.068 81.1463Z" fill="#606060"/>
</svg>
